<?xml version="1.0" encoding="UTF-8"?>
<svg id="Layer_1" xmlns="http://www.w3.org/2000/svg" version="1.1" viewBox="0 0 230.24 20.21">
  <!-- Generator: Adobe Illustrator 30.5.0, SVG Export Plug-In . SVG Version: 2.1.4 Build 167)  -->
  <defs>
    <style>
      .st0 {
        fill: none;
      }

      .st1 {
        fill: #e8641b;
      }
    </style>
  </defs>
  <g>
    <path d="M99.21,1.44c-.01.36-.01.71-.01,1.06,0,.37.02.81.07,1.34s.07.99.07,1.39h-.17c-.12-.72-.32-1.38-.62-1.99-.3-.61-.67-1.14-1.1-1.6s-.92-.81-1.47-1.07-1.13-.39-1.77-.39c-.5,0-.98.09-1.44.28-.46.18-.85.45-1.18.78-.33.34-.59.74-.78,1.21-.19.46-.29.99-.29,1.57,0,.64.16,1.18.49,1.63.33.45.74.84,1.25,1.19.5.35,1.05.66,1.65.93.6.27,1.18.54,1.74.81.62.29,1.23.61,1.83.97.6.36,1.14.78,1.61,1.26.47.48.86,1.04,1.15,1.65.29.62.44,1.35.44,2.18s-.16,1.56-.49,2.24c-.33.68-.78,1.26-1.36,1.74-.58.48-1.27.86-2.06,1.13-.79.27-1.67.41-2.61.41s-1.86-.16-2.67-.48-1.6-.73-2.35-1.23l-.75,1.13h-.12c0-.6,0-1.07.03-1.42.02-.35.03-.72.03-1.1,0-.41-.01-.88-.03-1.41-.02-.53-.03-1.11-.03-1.73h.17c.1.74.29,1.47.57,2.2.28.73.66,1.38,1.13,1.95.47.57,1.04,1.04,1.68,1.39.65.35,1.38.52,2.19.52.6,0,1.18-.1,1.73-.31.55-.2,1.04-.48,1.45-.84.42-.36.74-.8.99-1.32.24-.52.36-1.11.36-1.75,0-.6-.15-1.15-.46-1.63s-.7-.92-1.18-1.3-1-.72-1.58-1.02c-.58-.3-1.13-.58-1.65-.83-.62-.29-1.23-.6-1.83-.92-.6-.32-1.14-.7-1.61-1.13-.47-.44-.86-.96-1.15-1.57-.29-.61-.44-1.36-.44-2.25,0-.7.15-1.35.45-1.97.3-.62.7-1.16,1.2-1.63s1.08-.83,1.74-1.1C92.68.14,93.37,0,94.09,0s1.44.13,2.12.39c.68.26,1.32.63,1.92,1.12l.99-1.1h.12c0,.33,0,.67-.01,1.03Z"/>
    <path d="M101.55,19.68c.64,0,1.18-.17,1.63-.52.44-.35.83-.95,1.16-1.8L110.84,0h.2l6.62,17.36c.33.85.69,1.45,1.07,1.8.39.35.89.52,1.51.52v.12c-.52,0-.94,0-1.25-.01-.31,0-.58-.02-.81-.03s-.45-.02-.65-.03c-.2,0-.45-.01-.74-.01s-.54,0-.74.01c-.2.01-.43.02-.67.03-.24,0-.53.02-.87.03-.34.01-.78.01-1.32.01v-.12c.44,0,.87-.09,1.26-.26.4-.17.6-.51.6-1.02,0-.21-.03-.43-.09-.64-.06-.21-.13-.42-.2-.61l-2-5.31h-6.15l-2.03,5.49c-.12.35-.17.65-.17.9,0,.29.06.53.17.73.12.19.26.34.44.45.17.11.36.18.57.22.2.04.39.06.57.06v.12c-.33,0-.59,0-.8-.01-.2,0-.38-.01-.52-.01s-.29,0-.42-.01c-.14,0-.3-.01-.49-.01-.21,0-.39,0-.52.01s-.28.01-.44.01-.34,0-.55.01c-.21.01-.49.01-.84.01v-.12ZM106.66,11.67h6.04l-2.93-8.27-3.11,8.27Z"/>
    <path d="M130.92,19.86c-1.34,0-2.52-.02-3.54-.06-1.03-.04-1.89-.06-2.58-.06-.33,0-.61,0-.83.01-.22,0-.46.01-.71.01s-.54,0-.86.01c-.32.01-.73.01-1.23.01v-.12c.27,0,.54-.02.81-.07.27-.05.51-.14.71-.28s.37-.32.49-.57c.13-.24.19-.57.19-.97V2.38c0-.41-.06-.73-.19-.97-.13-.24-.29-.43-.49-.57s-.44-.23-.71-.28c-.27-.05-.54-.07-.81-.07v-.12c.5,0,.91,0,1.23.01s.6.02.84.03c.24.01.47.02.7.03.22,0,.5.01.83.01.31,0,.58,0,.81-.01.23,0,.47-.02.71-.03.24,0,.52-.02.84-.03s.73-.01,1.23-.01v.12c-.27,0-.54.02-.81.07-.27.05-.51.14-.71.28s-.37.32-.49.57c-.13.24-.19.57-.19.97v14.75c0,.6.11,1.07.32,1.41.21.34.51.6.9.77.39.17.84.28,1.36.32.52.04,1.09.06,1.71.06,2.85,0,4.51-1.33,4.99-3.98h.12l-.29,4.09c-.74.04-1.46.06-2.18.06h-2.18Z"/>
    <path d="M152.38.49c-.52.02-.97.2-1.35.54-.38.34-.67.79-.89,1.35l-6.5,17.77h-.12l-6.85-17.39c-.15-.37-.3-.69-.42-.97-.13-.28-.27-.52-.44-.71-.16-.19-.37-.34-.62-.44-.25-.1-.56-.15-.93-.15v-.12c.58,0,1.04,0,1.39.01.35,0,.64.02.89.03.24.01.45.02.64.03.18,0,.41.01.68.01s.5,0,.68-.01c.18,0,.39-.02.62-.03.23,0,.51-.02.84-.03s.76-.01,1.31-.01v.12c-.21.02-.44.04-.67.07-.23.03-.45.09-.64.17-.19.09-.35.22-.48.39s-.19.42-.19.73c0,.19.02.39.07.6.05.2.11.39.19.57l5.2,13.41,4.76-13.01c.08-.21.14-.42.19-.62s.07-.4.07-.6c0-.6-.19-1.04-.58-1.31-.39-.27-.82-.41-1.31-.41v-.12c.33,0,.6,0,.83.01.22,0,.42.01.58.01s.32,0,.46.01c.15.01.3.01.48.01.39,0,.71,0,.96-.03.25-.02.63-.03,1.13-.03v.12Z"/>
    <path d="M149.62,19.68c.64,0,1.18-.17,1.63-.52.44-.35.83-.95,1.16-1.8L158.91,0h.2l6.62,17.36c.33.85.69,1.45,1.07,1.8.39.35.89.52,1.51.52v.12c-.52,0-.94,0-1.25-.01-.31,0-.58-.02-.81-.03s-.45-.02-.65-.03c-.2,0-.45-.01-.74-.01s-.54,0-.74.01c-.2.01-.43.02-.67.03-.24,0-.53.02-.87.03-.34.01-.78.01-1.32.01v-.12c.44,0,.87-.09,1.26-.26.4-.17.6-.51.6-1.02,0-.21-.03-.43-.09-.64-.06-.21-.13-.42-.2-.61l-2-5.31h-6.15l-2.03,5.49c-.12.35-.17.65-.17.9,0,.29.06.53.17.73.12.19.26.34.44.45.17.11.36.18.57.22.2.04.39.06.57.06v.12c-.33,0-.59,0-.8-.01-.2,0-.38-.01-.52-.01s-.29,0-.42-.01c-.14,0-.3-.01-.49-.01-.21,0-.39,0-.52.01s-.28.01-.44.01-.34,0-.55.01c-.21.01-.49.01-.84.01v-.12ZM154.73,11.67h6.04l-2.93-8.27-3.11,8.27Z"/>
    <path d="M169.24.38c.5,0,.92,0,1.25.01s.62.01.87.01.49,0,.73.01c.23.01.51.01.84.01.62,0,1.3-.02,2.03-.07.74-.05,1.45-.07,2.15-.07,1.47,0,2.82.22,4.04.65,1.22.44,2.26,1.06,3.14,1.89.87.82,1.55,1.83,2.03,3.03.48,1.2.73,2.56.73,4.09,0,3.17-.8,5.62-2.4,7.33s-4.01,2.57-7.24,2.57c-.7,0-1.44-.02-2.24-.06s-1.54-.06-2.24-.06c-.33,0-.6,0-.83.01-.22,0-.46.01-.71.01s-.54,0-.87.01c-.33.01-.75.01-1.28.01v-.12c.27,0,.54-.02.81-.07.27-.05.51-.14.71-.28s.37-.32.49-.57c.13-.24.19-.57.19-.97V2.38c0-.41-.06-.73-.19-.97-.13-.24-.29-.43-.49-.57s-.44-.23-.71-.28c-.27-.05-.54-.07-.81-.07v-.12ZM174.24,16.34c0,.54.04,1.02.12,1.44.08.42.22.76.44,1.04.21.28.52.49.93.64.41.15.95.22,1.63.22,1.06,0,2.01-.24,2.83-.71.82-.47,1.5-1.13,2.05-1.97.54-.84.95-1.83,1.23-2.98.28-1.14.42-2.38.42-3.72s-.15-2.51-.44-3.69c-.29-1.18-.73-2.23-1.31-3.14s-1.31-1.64-2.19-2.19c-.88-.55-1.91-.83-3.09-.83-.29,0-.59,0-.9.03-.31.02-.59.08-.84.17-.25.1-.46.24-.62.42-.16.18-.25.43-.25.74v14.52Z"/>
    <path d="M199.84.03c1.39,0,2.7.24,3.93.71,1.23.47,2.3,1.15,3.22,2.03.92.88,1.65,1.95,2.18,3.19.53,1.25.8,2.64.8,4.17s-.27,2.97-.8,4.21c-.53,1.24-1.26,2.29-2.18,3.16-.92.87-1.99,1.54-3.22,2-1.23.46-2.54.7-3.93.7-1.49,0-2.85-.24-4.09-.71-1.24-.47-2.31-1.15-3.22-2.03-.91-.88-1.62-1.94-2.12-3.19-.5-1.25-.75-2.65-.75-4.19s.25-2.82.75-4.05c.5-1.23,1.21-2.29,2.1-3.18s1.97-1.58,3.22-2.08c1.25-.49,2.62-.74,4.11-.74ZM199.84.2c-1.14,0-2.15.29-3.03.86-.88.57-1.62,1.32-2.21,2.25-.59.93-1.04,1.99-1.34,3.18-.3,1.19-.45,2.41-.45,3.64,0,1.32.15,2.57.45,3.77.3,1.2.75,2.25,1.34,3.16.59.91,1.33,1.63,2.21,2.16.88.53,1.89.8,3.03.8s2.06-.27,2.92-.8c.86-.53,1.59-1.25,2.19-2.15.6-.9,1.06-1.95,1.38-3.15.32-1.2.48-2.47.48-3.8s-.16-2.57-.48-3.77c-.32-1.2-.78-2.25-1.38-3.16-.6-.91-1.33-1.64-2.19-2.18-.86-.54-1.83-.81-2.92-.81Z"/>
    <path d="M212.35.38c.5,0,.91,0,1.23.01s.6.01.84.01.47,0,.68.01c.21.01.47.01.78.01.5,0,1.07-.02,1.7-.07s1.35-.07,2.16-.07c.75,0,1.53.06,2.34.17.8.12,1.54.35,2.21.7.67.35,1.21.85,1.64,1.49.43.65.64,1.51.64,2.57,0,.72-.15,1.36-.44,1.93-.29.57-.68,1.06-1.16,1.48-.48.42-1.04.76-1.65,1.03-.62.27-1.25.45-1.89.55.19.25.54.67,1.03,1.26.49.59,1.04,1.25,1.65,1.99.61.74,1.24,1.49,1.89,2.26.65.77,1.23,1.46,1.76,2.06.44.5.86.94,1.23,1.32s.79.57,1.23.57v.12c-.33,0-.6,0-.83-.01-.22,0-.42-.01-.6-.01s-.35,0-.54-.01-.41-.01-.68-.01c-.23,0-.43,0-.6.01s-.31.01-.45.01-.28,0-.42.01c-.15.01-.31.01-.51.01-.6-.75-1.15-1.47-1.65-2.13-.5-.67-1-1.32-1.48-1.96s-.98-1.28-1.48-1.93c-.5-.65-1.04-1.34-1.63-2.08-.29-.37-.55-.65-.78-.86-.23-.2-.57-.3-1.02-.3h-.26v7.26c0,.41.06.73.19.97.13.24.29.43.49.57.2.14.44.23.71.28s.54.07.81.07v.12c-.58,0-1.04,0-1.38-.01-.34,0-.63-.02-.87-.03-.24,0-.47-.02-.68-.03-.21,0-.47-.01-.78-.01-.33,0-.6,0-.8.01-.2.01-.42.02-.64.03-.22,0-.49.02-.8.03-.31.01-.72.01-1.22.01v-.12c.27,0,.54-.02.81-.07.27-.05.51-.14.71-.28s.37-.32.49-.57c.13-.24.19-.57.19-.97V2.38c0-.41-.06-.73-.19-.97-.13-.24-.29-.43-.49-.57s-.44-.23-.71-.28c-.27-.05-.54-.07-.81-.07v-.12ZM217.32,10.36h1.45c1.57,0,2.73-.44,3.5-1.32.76-.88,1.15-2.17,1.15-3.88,0-.66-.1-1.28-.29-1.86s-.47-1.08-.84-1.5c-.37-.42-.82-.74-1.35-.99-.53-.24-1.14-.36-1.81-.36-.16,0-.34,0-.55.03-.21.02-.41.07-.6.16-.18.09-.34.21-.46.38-.13.16-.19.38-.19.65v8.68Z"/>
  </g>
  <g>
    <path d="M6.97,9.96c.87,0,1.51-.22,1.93-.67s.62-1.04.62-1.77h.12c0,.45,0,.8-.01,1.07-.01.27-.01.49-.01.65s0,.31-.01.42c0,.12-.01.25-.01.41s0,.28.01.38c0,.1.01.23.01.39s0,.37.01.62c0,.25.01.6.01,1.04h-.12c0-.7-.21-1.27-.62-1.71-.42-.44-1.06-.67-1.93-.67h-1.97v7.66c0,.41.06.73.19.97.13.24.29.43.51.57.21.14.46.23.74.28.28.05.58.07.89.07v.12c-.58,0-1.04,0-1.38-.01-.34,0-.63-.02-.87-.03-.24,0-.47-.02-.68-.03-.21,0-.47-.01-.78-.01-.33,0-.6,0-.83.01-.22.01-.46.02-.7.03-.24,0-.52.02-.84.03-.32.01-.73.01-1.23.01v-.12c.27,0,.54-.02.81-.07.27-.05.51-.14.71-.28s.37-.32.49-.57c.13-.24.19-.57.19-.97V2.38c0-.41-.06-.73-.19-.97-.13-.24-.29-.43-.49-.57s-.44-.23-.71-.28c-.27-.05-.54-.07-.81-.07v-.12c.5,0,.91,0,1.23.01s.59.01.83.01.46,0,.68.01c.22.01.49.01.8.01.66,0,1.41-.02,2.25-.07s1.84-.07,3-.07c.77,0,1.46,0,2.05.03.59.02,1.27.04,2.05.06l.35,3.66h-.12c-.19-1.1-.74-1.97-1.64-2.61s-2.08-.96-3.53-.96c-.17,0-.37,0-.58.01-.21.01-.43.02-.64.04s-.41.04-.6.06c-.18.02-.32.04-.42.06-.48.12-.73.43-.73.93v8.39h1.97Z"/>
    <path d="M31.41.38c.5,0,.91,0,1.23.01s.59.01.83.01.45,0,.67.01c.21.01.47.01.78.01.62,0,1.27-.01,1.96-.04.69-.03,1.27-.04,1.76-.04.85,0,1.67.07,2.45.2.78.14,1.48.37,2.09.71.61.34,1.1.81,1.47,1.41.37.6.55,1.36.55,2.29,0,.62-.12,1.19-.36,1.71-.24.52-.57.98-.97,1.36-.41.39-.89.71-1.44.97-.55.26-1.14.43-1.76.51v.03c.6.04,1.24.15,1.93.35.69.19,1.33.48,1.92.87s1.08.89,1.47,1.5c.39.61.58,1.35.58,2.22,0,1.84-.59,3.19-1.77,4.06-1.18.87-2.89,1.31-5.14,1.31-.72,0-1.45-.02-2.21-.06s-1.53-.06-2.32-.06c-.35,0-.64,0-.87.01-.23,0-.47.01-.73.01s-.54,0-.87.01c-.33.01-.75.01-1.25.01v-.12c.29,0,.57-.02.83-.07s.49-.14.7-.28.37-.32.49-.57c.13-.24.19-.57.19-.97V2.38c0-.41-.06-.73-.19-.97-.13-.24-.29-.43-.49-.57s-.44-.23-.7-.28-.54-.07-.83-.07v-.12ZM36.4,9.55h2.12c.68,0,1.25-.11,1.73-.33.47-.22.86-.53,1.16-.93.3-.4.52-.87.65-1.42.14-.55.2-1.16.2-1.81,0-.52-.07-1.05-.22-1.58-.15-.53-.38-1.02-.7-1.45-.32-.44-.74-.79-1.26-1.07-.52-.28-1.16-.42-1.92-.42-.56,0-1,.07-1.31.22-.31.15-.46.44-.46.89v7.93ZM36.4,16.37c0,.58.04,1.08.12,1.5.08.42.23.76.46,1.03s.55.47.96.6.94.19,1.6.19,1.19-.14,1.67-.42c.47-.28.88-.65,1.2-1.1.33-.45.58-.97.74-1.54.16-.57.25-1.16.25-1.76,0-1.78-.45-3.08-1.34-3.9-.89-.82-2.07-1.23-3.54-1.23h-2.12v6.65Z"/>
    <path d="M48.83.38c.5,0,.91,0,1.23.01s.6.02.84.03c.24.01.47.02.7.03.22,0,.5.01.83.01.31,0,.58,0,.81-.01.23,0,.47-.02.71-.03.24,0,.52-.02.84-.03s.73-.01,1.23-.01v.12c-.29,0-.57.02-.83.07s-.49.14-.7.28-.37.32-.49.57c-.13.24-.19.57-.19.97v15.42c0,.41.06.73.19.97.13.24.29.43.49.57s.44.23.7.28.54.07.83.07v.12c-.5,0-.91,0-1.23-.01-.32,0-.6-.02-.84-.03s-.48-.02-.71-.03c-.23,0-.5-.01-.81-.01-.33,0-.6,0-.83.01-.22.01-.46.02-.7.03-.24,0-.52.02-.84.03-.32.01-.73.01-1.23.01v-.12c.29,0,.57-.02.83-.07s.49-.14.7-.28.37-.32.49-.57c.13-.24.19-.57.19-.97V2.38c0-.41-.06-.73-.19-.97-.13-.24-.29-.43-.49-.57s-.44-.23-.7-.28-.54-.07-.83-.07v-.12Z"/>
    <path d="M68.6.03c1.39,0,2.7.24,3.93.71,1.23.47,2.3,1.15,3.22,2.03.92.88,1.65,1.95,2.18,3.19.53,1.25.8,2.64.8,4.17s-.27,2.97-.8,4.21c-.53,1.24-1.26,2.29-2.18,3.16-.92.87-1.99,1.54-3.22,2-1.23.46-2.54.7-3.93.7-1.49,0-2.85-.24-4.09-.71-1.24-.47-2.31-1.15-3.22-2.03-.91-.88-1.62-1.94-2.12-3.19-.5-1.25-.75-2.65-.75-4.19s.25-2.82.75-4.05c.5-1.23,1.21-2.29,2.1-3.18s1.97-1.58,3.22-2.08c1.25-.49,2.62-.74,4.11-.74ZM68.6.2c-1.14,0-2.15.29-3.03.86-.88.57-1.62,1.32-2.21,2.25-.59.93-1.04,1.99-1.34,3.18-.3,1.19-.45,2.41-.45,3.64,0,1.32.15,2.57.45,3.77.3,1.2.75,2.25,1.34,3.16.59.91,1.33,1.63,2.21,2.16.88.53,1.89.8,3.03.8s2.06-.27,2.92-.8c.86-.53,1.59-1.25,2.19-2.15.6-.9,1.06-1.95,1.38-3.15.32-1.2.48-2.47.48-3.8s-.16-2.57-.48-3.77c-.32-1.2-.78-2.25-1.38-3.16-.6-.91-1.33-1.64-2.19-2.18-.86-.54-1.83-.81-2.92-.81Z"/>
    <g>
      <g>
        <polygon class="st0" points="20.91 5.66 21.81 5.66 21.97 5.66 22.05 5.66 22.13 5.63 23.22 5.08 23.09 4.75 21.97 5.31 21.81 5.31 22.92 4.3 22.78 3.94 21.57 5.06 20.91 5.66"/>
        <polygon class="st0" points="16.9 11.67 22.93 11.67 20 3.4 16.9 11.67"/>
        <path class="st0" d="M28.14,2.21c.34-.19.51-.52.51-.99,0-.27-.08-.48-.25-.64-.16-.15-.37-.23-.62-.23s-.46.05-.62.15c-.17.1-.32.21-.48.35l-3.76,3.45.17.46,3.99-1.99c.37-.17.72-.36,1.06-.55Z"/>
        <path d="M28.97,19.16c-.39-.35-.75-.95-1.07-1.8l-4.68-12.28-1.09.54-.07.04h-1.14l.66-.61,1.21-1.11-1.5-3.94h-.2l-6.5,17.36c-.33.85-.72,1.45-1.16,1.8-.45.35-.99.52-1.63.52v.12c.35,0,.63,0,.84-.01.21,0,.4-.01.55-.01s.3,0,.44-.01.31-.01.52-.01c.19,0,.36,0,.49.01.14,0,.28.01.42.01s.32,0,.52.01c.2.01.47.01.8.01v-.12c-.17,0-.36-.02-.57-.06-.2-.04-.39-.11-.57-.22-.17-.11-.32-.26-.44-.45-.12-.19-.17-.44-.17-.73,0-.25.06-.55.17-.9l2.03-5.49h6.15l2,5.31c.08.19.15.4.2.61.06.21.09.43.09.64,0,.5-.2.84-.6,1.02-.4.17-.82.26-1.26.26v.12c.54,0,.98,0,1.32-.01.34,0,.63-.02.87-.03.24,0,.46-.02.67-.03.2,0,.45-.01.74-.01s.54,0,.74.01c.2.01.42.02.65.03s.5.02.81.03c.31.01.73.01,1.25.01v-.12c-.62,0-1.12-.17-1.51-.52ZM16.9,11.67l3.11-8.27,2.93,8.27h-6.04Z"/>
      </g>
      <path class="st1" d="M21.56,5.39l4.66-4.28c.15-.13.3-.24.46-.33.17-.1.39-.15.64-.15.27,0,.49.08.67.25.18.17.27.4.27.69,0,.48-.18.82-.54,1.02-.31.18-.63.34-.96.5l-4.61,2.31h-.59Z"/>
    </g>
  </g>
</svg>